<svg width="25" height="24" viewBox="0 0 25 24" fill="none" xmlns="http://www.w3.org/2000/svg">
<g clip-path="url(#clip0_301_77)">
<path d="M9.25 4.75H15.75C19.06 4.75 21.75 7.44 21.75 10.75V13.25C21.75 16.56 19.06 19.25 15.75 19.25H3.25V10.75C3.25 7.44 5.94 4.75 9.25 4.75Z" stroke="#121331" stroke-width="1.5" stroke-linecap="round" stroke-linejoin="round"/>
<circle cx="8.5" cy="12" r="1" fill="#121331"/>
<path d="M13.5 12C13.5 12.5523 13.0523 13 12.5 13C11.9477 13 11.5 12.5523 11.5 12C11.5 11.4477 11.9477 11 12.5 11C13.0523 11 13.5 11.4477 13.5 12Z" fill="#121331"/>
<circle cx="16.5" cy="12" r="1" fill="#121331"/>
</g>
<defs>
<clipPath id="clip0_301_77">
<rect width="24" height="24" fill="white" transform="translate(0.5)"/>
</clipPath>
</defs>
</svg>
