<svg width="278" height="278" viewBox="0 0 278 278" fill="none" xmlns="http://www.w3.org/2000/svg">
<g filter="url(#filter0_d_3_9)">
<rect x="4" width="270" height="270" fill="black"/>
<g clip-path="url(#clip0_3_9)">
<rect x="96" y="87" width="84" height="84" rx="37" fill="white"/>
<path d="M177.168 78.008H99.832C93.31 78.008 88 83.2895 88 89.8341V167.45C88 173.994 93.3096 179.276 99.8316 179.276H165.28L162.22 168.655L169.608 175.487L176.591 181.916L189 192.824V89.8341C189 83.2895 183.69 78.008 177.168 78.008ZM154.891 152.983C154.891 152.983 152.813 150.514 151.082 148.333C158.642 146.209 161.528 141.501 161.528 141.501C159.162 143.051 156.911 144.142 154.891 144.888C152.005 146.094 149.235 146.897 146.522 147.357C140.982 148.39 135.903 148.103 131.574 147.3C128.284 146.668 125.456 145.749 123.09 144.831C121.763 144.314 120.32 143.683 118.877 142.879C118.704 142.764 118.531 142.707 118.358 142.592C118.242 142.535 118.184 142.477 118.127 142.42C117.088 141.846 116.511 141.444 116.511 141.444C116.511 141.444 119.281 146.037 126.611 148.218C124.88 150.4 122.744 152.983 122.744 152.983C109.989 152.581 105.141 144.257 105.141 144.257C105.141 125.772 113.452 110.788 113.452 110.788C121.763 104.588 129.67 104.76 129.67 104.76L130.247 105.449C119.858 108.434 115.068 112.97 115.068 112.97C115.068 112.97 116.338 112.281 118.473 111.305C124.648 108.606 129.554 107.86 131.574 107.688C131.92 107.63 132.209 107.573 132.556 107.573C136.423 107.072 140.337 107.033 144.214 107.459C149.696 108.09 155.584 109.697 161.586 112.97C161.586 112.97 157.026 108.664 147.215 105.679L148.023 104.761C148.023 104.761 155.93 104.588 164.24 110.788C164.24 110.788 172.552 125.772 172.552 144.257C172.552 144.257 167.646 152.581 154.891 152.983V152.983ZM128.054 126.173C124.764 126.173 122.167 129.044 122.167 132.545C122.167 136.048 124.822 138.918 128.054 138.918C131.344 138.918 133.94 136.048 133.94 132.545C133.998 129.044 131.343 126.173 128.054 126.173ZM149.12 126.173C145.83 126.173 143.232 129.044 143.232 132.545C143.232 136.048 145.888 138.918 149.12 138.918C152.409 138.918 155.006 136.048 155.006 132.545C155.006 129.044 152.409 126.173 149.12 126.173Z" fill="#7289DA"/>
</g>
</g>
<defs>
<filter id="filter0_d_3_9" x="0" y="0" width="278" height="278" filterUnits="userSpaceOnUse" color-interpolation-filters="sRGB">
<feFlood flood-opacity="0" result="BackgroundImageFix"/>
<feColorMatrix in="SourceAlpha" type="matrix" values="0 0 0 0 0 0 0 0 0 0 0 0 0 0 0 0 0 0 127 0" result="hardAlpha"/>
<feOffset dy="4"/>
<feGaussianBlur stdDeviation="2"/>
<feComposite in2="hardAlpha" operator="out"/>
<feColorMatrix type="matrix" values="0 0 0 0 0 0 0 0 0 0 0 0 0 0 0 0 0 0 0.25 0"/>
<feBlend mode="normal" in2="BackgroundImageFix" result="effect1_dropShadow_3_9"/>
<feBlend mode="normal" in="SourceGraphic" in2="effect1_dropShadow_3_9" result="shape"/>
</filter>
<clipPath id="clip0_3_9">
<rect width="101" height="115" fill="white" transform="translate(88 78)"/>
</clipPath>
</defs>
</svg>
