<svg width="25" height="24" viewBox="0 0 25 24" fill="none" xmlns="http://www.w3.org/2000/svg">
<mask id="mask0_503_31849" style="mask-type:alpha" maskUnits="userSpaceOnUse" x="2" y="2" width="21" height="20">
<path fill-rule="evenodd" clip-rule="evenodd" d="M23 2H2V22H23V2ZM3.5 8C3.08579 8 2.75 8.33579 2.75 8.75C2.75 9.16421 3.08579 9.5 3.5 9.5H21.5C21.9142 9.5 22.25 9.16421 22.25 8.75C22.25 8.33579 21.9142 8 21.5 8H3.5ZM7.5 13.5C7.5 14.05 7.95 14.5 8.5 14.5C9.06 14.5 9.5 14.05 9.5 13.5C9.5 12.95 9.05 12.5 8.5 12.5C7.95 12.5 7.5 12.95 7.5 13.5ZM12.5 14.5C11.95 14.5 11.5 14.05 11.5 13.5C11.5 12.95 11.94 12.5 12.5 12.5C13.05 12.5 13.5 12.95 13.5 13.5C13.5 14.05 13.05 14.5 12.5 14.5ZM15.5 13.5C15.5 14.05 15.95 14.5 16.5 14.5C17.05 14.5 17.5 14.05 17.5 13.5C17.5 12.95 17.05 12.5 16.5 12.5C15.94 12.5 15.5 12.95 15.5 13.5ZM8.5 18C7.95 18 7.5 17.55 7.5 17C7.5 16.45 7.95 16 8.5 16C9.05 16 9.5 16.45 9.5 17C9.5 17.55 9.06 18 8.5 18ZM11.5 17C11.5 17.55 11.95 18 12.5 18C13.05 18 13.5 17.55 13.5 17C13.5 16.45 13.05 16 12.5 16C11.94 16 11.5 16.45 11.5 17Z" fill="#D9D9D9"/>
</mask>
<g mask="url(#mask0_503_31849)">
<path d="M4.25 5.75C4.25 5.19772 4.69772 4.75 5.25 4.75H19.75C20.3023 4.75 20.75 5.19772 20.75 5.75V19.25C20.75 19.8023 20.3023 20.25 19.75 20.25H5.25C4.69772 20.25 4.25 19.8023 4.25 19.25V5.75Z" fill="#121331" stroke="#121331" stroke-width="1.5" stroke-linejoin="round"/>
<path d="M8.5 3V4.75" stroke="#121331" stroke-width="2" stroke-linecap="round" stroke-linejoin="round"/>
<path d="M16.5 3V4.75" stroke="#121331" stroke-width="2" stroke-linecap="round" stroke-linejoin="round"/>
</g>
</svg>
